# xmcd CD database file
#
# Track frame offsets:
#	150
#	7339
#	26903
#	46902
#	75476
#	104048
#	125454
#	141990
#	164863
#	183847
#
# Disc length: 2789 seconds
#
# Revision: 3
# Processed by: cddbd v1.5.2PL0 Copyright (c) Steve Scherf et al.
# Submitted via: CDex 1.70beta2
#
DISCID=8e0ae30a
DTITLE=ALiCE'S EMOTiON - Trois Rouge
DYEAR=2008
DGENRE=Electronic
TTITLE0=REDALiCE - Stand by Go
TTITLE1=REDALiCE, 野宮あゆみ - E Rouge
TTITLE2=REDALiCE, 佳織みちる - Resonance Effect
TTITLE3=Masayoshi Minoshima, 美里 - Soul of Rouge
TTITLE4=Tsukasa - 1969
TTITLE5=REDALiCE, 三澤秋 - Forget-me-not
TTITLE6=REDALiCE, 美里 - Tag
TTITLE7=Tsukasa, 野宮あゆみ - Crazy Full Moon (Tsukasa Remix)
TTITLE8=REDALiCE - Rapture
TTITLE9=Masayoshi Minoshima, 野宮あゆみ - E Rouge (ALR Remix)
EXTD=YEAR: 2008
EXTT0=
EXTT1=
EXTT2=
EXTT3=
EXTT4=
EXTT5=
EXTT6=
EXTT7=
EXTT8=
EXTT9=
PLAYORDER=
